<svg width="666" height="337" viewBox="0 0 666 337" fill="none" xmlns="http://www.w3.org/2000/svg">
<g filter="url(#filter0_f_40004180_18)">
<mask id="mask0_40004180_18" style="mask-type:alpha" maskUnits="userSpaceOnUse" x="0" y="12" width="666" height="313">
<rect width="666" height="312.349" transform="matrix(-1 0 0 1 666 12)" fill="#F9F9F9"/>
</mask>
<g mask="url(#mask0_40004180_18)">
<path d="M35.3875 20.1056C47.1257 31.8439 54.0502 66.9804 57.3673 89.2842C58.8639 99.3471 66.7602 107.232 76.812 108.729C99.1157 112.057 134.252 118.97 145.991 130.709C163.682 148.4 163.682 177.081 145.991 194.772C128.299 212.463 99.6183 212.463 81.9272 194.772C70.1889 183.034 63.2644 147.897 59.9473 125.593C58.4507 115.53 50.5545 107.645 40.5027 106.149C18.1989 102.821 -16.9376 95.9072 -28.6758 84.1689C-46.367 66.4778 -46.367 37.7967 -28.6758 20.1056C-10.9847 2.4145 17.6964 2.4145 35.3875 20.1056Z" fill="#F9F9F9"/>
<path d="M298.643 394.858C272.453 394.858 251.221 373.626 251.221 347.436C251.221 321.245 272.453 300.014 298.643 300.014C324.834 300.014 346.065 321.245 346.065 347.436C346.065 373.626 324.834 394.858 298.643 394.858Z" fill="#F9F9F9"/>
<path d="M490.208 187.78C471.691 187.78 456.68 172.769 456.68 154.252C456.68 135.735 471.691 120.724 490.208 120.724C508.725 120.724 523.736 135.735 523.736 154.252C523.736 172.769 508.725 187.78 490.208 187.78Z" fill="#F9F9F9"/>
<path d="M494.485 384.359C475.968 384.359 460.957 369.348 460.957 350.831C460.957 332.314 475.968 317.303 494.485 317.303C513.002 317.303 528.014 332.314 528.014 350.831C528.014 369.348 513.002 384.359 494.485 384.359Z" fill="#F9F9F9"/>
<path d="M596.332 282.502C577.815 282.502 562.804 267.49 562.804 248.973C562.804 230.456 577.815 215.445 596.332 215.445C614.849 215.445 629.86 230.456 629.86 248.973C629.86 267.49 614.849 282.502 596.332 282.502Z" fill="#F9F9F9"/>
<path d="M204.469 94.3435C185.952 94.3435 170.941 79.3324 170.941 60.8152C170.941 42.2981 185.952 27.287 204.469 27.287C222.987 27.287 237.998 42.2981 237.998 60.8152C237.998 79.3324 222.987 94.3435 204.469 94.3435Z" fill="#F9F9F9"/>
<path d="M95.6646 410.595C69.4742 410.595 48.2426 389.363 48.2426 363.173C48.2426 336.982 69.4742 315.751 95.6646 315.751C121.855 315.751 143.087 336.982 143.087 363.173C143.087 389.363 121.855 410.595 95.6646 410.595Z" fill="#F9F9F9"/>
<path d="M203.364 302.895C177.173 302.895 155.942 281.664 155.942 255.473C155.942 229.283 177.173 208.051 203.364 208.051C229.554 208.051 250.786 229.283 250.786 255.473C250.786 281.664 229.554 302.895 203.364 302.895Z" fill="#F9F9F9"/>
<path d="M396.592 94.1649C378.075 94.1649 363.064 79.1538 363.064 60.6367C363.064 42.1195 378.075 27.1084 396.592 27.1084C415.109 27.1084 430.12 42.1195 430.12 60.6367C430.12 79.1538 415.109 94.1649 396.592 94.1649Z" fill="#F9F9F9"/>
<path d="M-1.11164 313.818C-27.3021 313.818 -48.5336 292.587 -48.5336 266.396C-48.5336 240.206 -27.3021 218.974 -1.11164 218.974C25.0788 218.974 46.3104 240.206 46.3104 266.396C46.3104 292.587 25.0788 313.818 -1.11164 313.818Z" fill="#F9F9F9"/>
<path d="M329.402 135.422C338.437 144.457 343.754 171.485 346.322 188.651C347.473 196.391 353.548 202.467 361.288 203.617C378.454 206.175 405.483 211.502 414.518 220.538C428.133 234.152 428.133 256.222 414.518 269.836C400.903 283.451 378.834 283.451 365.22 269.836C356.184 260.801 350.868 233.773 348.299 216.606C347.149 208.867 341.073 202.791 333.333 201.64C316.167 199.083 289.139 193.755 280.103 184.72C266.489 171.105 266.489 149.036 280.103 135.422C293.718 121.807 315.787 121.807 329.402 135.422Z" fill="#F9F9F9"/>
</g>
</g>
<defs>
<filter id="filter0_f_40004180_18" x="-12" y="0" width="653.86" height="336.349" filterUnits="userSpaceOnUse" color-interpolation-filters="sRGB">
<feFlood flood-opacity="0" result="BackgroundImageFix"/>
<feBlend mode="normal" in="SourceGraphic" in2="BackgroundImageFix" result="shape"/>
<feGaussianBlur stdDeviation="6" result="effect1_foregroundBlur_40004180_18"/>
</filter>
</defs>
</svg>
