<svg width="20" height="20" viewBox="0 0 20 20" fill="none" xmlns="http://www.w3.org/2000/svg">
<mask id="mask0_40004221_915" style="mask-type:alpha" maskUnits="userSpaceOnUse" x="0" y="0" width="20" height="20">
<path d="M20 0H0V20H20V0Z" fill="#BDBDBD"/>
</mask>
<g mask="url(#mask0_40004221_915)">
<path d="M19.93 5.87C19.8801 4.81 19.7101 4.08 19.4703 3.44C19.2204 2.77 18.8306 2.17 18.3108 1.67C17.8111 1.16 17.2014 0.77 16.5417 0.52C15.902 0.27 15.1824 0.0999999 14.1129 0.0599999C13.0435 0.00999994 12.7036 0 9.98501 0C7.26637 0 6.92653 0.00999994 5.86706 0.0599999C4.80759 0.11 4.07796 0.28 3.43828 0.52C2.76861 0.77 2.16891 1.16 1.66916 1.68C1.15942 2.18 0.769612 2.79 0.519737 3.45C0.269862 4.09 0.0999476 4.81 0.0599676 5.88C0.00999256 6.95 0 7.29 0 10.01C0 12.73 0.00999256 13.07 0.0599676 14.13C0.109943 15.19 0.279859 15.92 0.529734 16.56C0.779609 17.23 1.17941 17.83 1.68915 18.33C2.1889 18.84 2.7986 19.23 3.45827 19.48C4.09795 19.73 4.81759 19.9 5.88706 19.94C6.95652 19.99 7.29635 20 10.005 20C12.7136 20 13.0635 19.99 14.1229 19.94C15.1824 19.89 15.912 19.72 16.5517 19.48C17.8911 18.96 18.9605 17.9 19.4803 16.55C19.7301 15.91 19.9001 15.19 19.94 14.12C19.99 13.05 20 12.71 20 10C20 7.29 20 6.94 19.95 5.88L19.93 5.87ZM18.1209 14.04C18.081 15.02 17.9111 15.54 17.7811 15.9C17.4413 16.77 16.7516 17.46 15.8821 17.8C15.5322 17.94 15.0025 18.1 14.023 18.14C12.9735 18.19 12.6537 18.2 9.98501 18.2C7.31634 18.2 6.9965 18.19 5.94702 18.14C4.96751 18.1 4.44777 17.93 4.08795 17.8C3.65817 17.64 3.25837 17.39 2.93853 17.05C2.60869 16.73 2.34882 16.33 2.1889 15.9C2.04897 15.55 1.88905 15.02 1.84907 14.04C1.7991 12.99 1.78911 12.67 1.78911 10C1.78911 7.33 1.7991 7.01 1.84907 5.96C1.88905 4.98 2.05897 4.46 2.1889 4.1C2.34882 3.67 2.5987 3.27 2.93853 2.95C3.25837 2.62 3.64817 2.36 4.08795 2.2C4.43778 2.06 4.96751 1.9 5.94702 1.86C6.9965 1.81 7.31634 1.8 9.98501 1.8C12.6537 1.8 12.9735 1.81 14.023 1.86C15.0025 1.9 15.5222 2.07 15.8821 2.2C16.3118 2.36 16.7116 2.61 17.0315 2.95C17.3613 3.27 17.6212 3.67 17.7811 4.1C17.921 4.45 18.081 4.98 18.1209 5.96C18.1709 7.01 18.1809 7.33 18.1809 10C18.1809 12.67 18.1709 12.98 18.1209 14.04Z" fill="white"/>
<path d="M9.99986 5.06006C7.15986 5.06006 4.85986 7.36006 4.85986 10.2001C4.85986 13.0401 7.15986 15.3401 9.99986 15.3401C12.8399 15.3401 15.1399 13.0401 15.1399 10.2001C15.1399 7.36006 12.8399 5.06006 9.99986 5.06006ZM9.99986 13.5301C8.15986 13.5301 6.66986 12.0401 6.66986 10.2001C6.66986 8.36006 8.15986 6.87006 9.99986 6.87006C11.8399 6.87006 13.3299 8.36006 13.3299 10.2001C13.3299 12.0401 11.8399 13.5301 9.99986 13.5301Z" fill="white"/>
<path d="M15.3401 3.65991C14.6801 3.65991 14.1401 4.19991 14.1401 4.85991C14.1401 5.51991 14.6801 6.05991 15.3401 6.05991C16.0001 6.05991 16.5401 5.51991 16.5401 4.85991C16.5401 4.19991 16.0001 3.65991 15.3401 3.65991Z" fill="white"/>
</g>
</svg>
