<svg width="20" height="20" viewBox="0 0 20 20" fill="none" xmlns="http://www.w3.org/2000/svg">
<path d="M4.33006 6.44995H0.310059V19.45H4.33006V6.44995Z" fill="white"/>
<path d="M3.62 0.389999C3.24 0.129999 2.78999 0 2.32999 0C1.70999 0 1.12 0.249999 0.68 0.689999C0.24 1.13 0 1.73 0 2.35C0 2.81 0.139999 3.27 0.389999 3.65C0.639999 4.03 1.01 4.34 1.43 4.51C1.86 4.69 2.32 4.73 2.78 4.64C3.23 4.55 3.64999 4.33 3.96999 4C4.29999 3.67 4.52 3.26 4.61 2.8C4.7 2.35 4.65 1.87 4.48 1.45C4.3 1.02 4.00999 0.659998 3.62 0.399998V0.389999Z" fill="white"/>
<path d="M14.45 6.13993C13.69 6.11993 12.94 6.29993 12.27 6.65993C11.6 7.02993 11.05 7.56993 10.66 8.21993V6.44993H6.81L6.75 19.4599H10.75V13.0299C10.75 11.3299 11.08 9.68993 13.16 9.68993C15.24 9.68993 15.25 11.6999 15.25 13.1299V19.4599H19.25V12.3199C19.25 8.81993 18.51 6.13993 14.44 6.13993H14.45Z" fill="white"/>
</svg>
